<svg
  aria-hidden="true"
  style="position: absolute; width: 0; height: 0; overflow: hidden;"
  version="1.1"
  xmlns="http://www.w3.org/2000/svg"
  xmlns:xlink="http://www.w3.org/1999/xlink"
>
<defs>
<symbol id="icon-check" viewBox="0 0 32 32">
<path
        d="M4.817 15.389l-0.169-0.162-2.544 2.41 8.962 8.55 18.829-17.962-2.527-2.411-16.302 15.536-6.249-5.962z"
      />
</symbol>
<symbol id="icon-close" viewBox="0 0 32 32">
<path
        d="M26.67 7.304l-1.97-1.97-7.809 7.809-7.809-7.809-1.97 1.97 7.809 7.809-7.809 7.809 1.97 1.97 7.809-7.809 7.809 7.809 1.97-1.97-7.809-7.809 7.809-7.809z"
      />
</symbol>
<symbol id="icon-email" viewBox="0 0 32 32">
<path
        d="M26.67 5.334h-21.336c-1.467 0-2.653 1.2-2.653 2.667l-0.014 16.002c0 1.467 1.2 2.667 2.667 2.667h21.336c1.467 0 2.667-1.2 2.667-2.667v-16.002c0-1.467-1.2-2.667-2.667-2.667zM26.136 11.002l-9.427 5.892c-0.201 0.126-0.446 0.2-0.708 0.2s-0.506-0.075-0.713-0.204l0.006 0.003-9.427-5.892c-0.336-0.201-0.557-0.562-0.557-0.975 0-0.626 0.507-1.133 1.133-1.133 0.233 0 0.449 0.070 0.629 0.19l-0.004-0.003 8.934 5.586 8.934-5.588c0.176-0.118 0.392-0.188 0.625-0.188 0.625 0 1.133 0.507 1.133 1.133 0 0.413-0.221 0.775-0.552 0.973l-0.005 0.003z"
      />
</symbol>
<symbol id="icon-person" viewBox="0 0 32 32">
<path
        d="M16.002 16.002c2.946 0 5.334-2.388 5.334-5.334s-2.388-5.334-5.334-5.334v0c-2.946 0-5.334 2.388-5.334 5.334s2.388 5.334 5.334 5.334v0zM16.002 18.669c-3.561 0-10.668 1.787-10.668 5.334v1.333c0 0.733 0.599 1.333 1.333 1.333h18.669c0.733 0 1.333-0.601 1.333-1.333v-1.333c0-3.547-7.108-5.334-10.668-5.334z"
      />
</symbol>
<symbol id="icon-phone" viewBox="0 0 32 32">
<path
        d="M24.885 19.776l-3.268-0.373c-0.090-0.011-0.194-0.018-0.3-0.018-0.707 0-1.347 0.287-1.811 0.75l-2.368 2.368c-3.67-1.894-6.586-4.811-8.428-8.373l-0.051-0.108 2.383-2.377c0.463-0.463 0.75-1.104 0.75-1.811 0-0.106-0.006-0.21-0.019-0.312l0.001 0.012-0.373-3.243c-0.155-1.287-1.241-2.276-2.557-2.276-0.001 0-0.002 0-0.003 0h-2.226c-1.454 0-2.663 1.209-2.575 2.662 0.683 10.988 9.471 19.764 20.447 20.447 1.453 0.089 2.663-1.12 2.663-2.575v-2.226c0-0.004 0-0.008 0-0.012 0-1.308-0.985-2.386-2.253-2.533l-0.012-0.001z"
      />
</symbol>
<symbol id="icon-send" viewBox="0 0 32 32">
<path
        d="M32.008 0l-32.008 18.005 10.229 3.788 15.777-14.79-12 16.191 0.009 0.003-0.012-0.003v8.816l5.736-6.692 7.268 2.691 5-28.007z"
      />
</symbol>
</defs>
</svg>
